<svg id="Fills" xmlns="http://www.w3.org/2000/svg" viewBox="0 0 2000 2000">
    <style>
        .cls-1 {
            fill: #500;
        }
        @media (prefers-color-scheme: dark) {
            .cls-1 {
                fill: #fff;
            }
        }
    </style>
    <path class="cls-1" d="M571.08,822.36c-11.11-6.38-23-13.44-35.77-21.17Z" />
    <path class="cls-1" d="M1459.52,39.34h0c-.14,0-1-.31-2.44-.64C1458.38,38.64,1459.21,38.85,1459.52,39.34Z" />
    <path class="cls-1" d="M1724.17,1565l-.2.33c-126.6,180.85-405.16,374.76-741,351.73-424.51-29.1-839.79-418.45-843-421.49,2.26,1.43,132.14,84.29,276.15,162.19-11.11-11-17-17.54-17-17.54-157.66-187.35-167.4-440.08-167.4-440.08a592.24,592.24,0,0,0,36.12,59.06c-6-101.34,20.76-202.32,114.28-277.45,0,0-17,268.58,38.52,348.58,2.39-5.36,3.51-187.9,51.94-244.66,0,0-5.91,72.76-3,146.93,9.51-33.08,20.93-52.86,20.93-52.86,163,250.47,344,253.94,445.88,228.84-121.67,28-154.19-67-154.19-67,346.34-48.82,335.73-338.93,335.73-346.71v-.12c-13,72.07-83,103.62-83.46,103.83h0c114.55-170,56.1-303.15,55.64-304.19l-2-7.43.09.07c-31.88-34-88.2-54.53-186.05-1.3C737.93,875.06,704.79,895,592.53,834.35c-6.84-3.7-14-7.69-21.45-12l-35.77-21.17-.58-.35h0l-.06,0-.1-.06c-1.63-1-13.08-8.58-4.94-27l.19-.44.21-.46c.1-.23.21-.45.32-.68l.73-.8,1.38-1.52,1.41-1.54c6.33-7,15-16.34,23.3-25.35l1.66-1.8,1.88-2,2-2.14,1.27-1.38L830.36,445.68h0q7.51-16,15.11-30.79c19.21-44.09,55.19-142,98.95-333.69h0c1.07,1.55,53.15,77.61,104.7,102.44l.26.12c1.88.84,3.79,1.66,5.72,2.44,81.94-33.32,141.56-2.57,142.51-2.07C1341.82,21.87,1439.79,34.8,1456.86,38.64l.2,0c1.47.33,2.3.59,2.44.64h0c.46.71-.22,2-2.2,3.83-22.57,21-38.13,109.18-41.82,131.9a3.27,3.27,0,0,0,4.27,3.61c14.34-4.82,52.35-16.88,26.42-.11-28.38,18.37-38.73,81.8-40.51,94.31a3.23,3.23,0,0,0,1.53,3.24c12.94,7.87,91.62,57.45,132.43,123.19,45.17,72.78,213.5,189.31,246.09,211.47a3.26,3.26,0,0,1-.92,5.82c-33.67,10.3-69.86,7.84-98.6,2.42,94.63,139,175.17,303.41,173.63,459.19C1864.72,1290.59,1805.35,1451.92,1724.17,1565Z" />
</svg>
