<?xml version="1.0" standalone="no"?>
<!DOCTYPE svg PUBLIC "-//W3C//DTD SVG 20010904//EN"
 "http://www.w3.org/TR/2001/REC-SVG-20010904/DTD/svg10.dtd">
<svg version="1.0" xmlns="http://www.w3.org/2000/svg"
 width="700.000000pt" height="700.000000pt" viewBox="0 0 700.000000 700.000000"
 preserveAspectRatio="xMidYMid meet">
<metadata>
Created by potrace 1.11, written by Peter Selinger 2001-2013
</metadata>
<g transform="translate(0.000000,700.000000) scale(0.100000,-0.100000)"
fill="#000000" stroke="none">
<path d="M4998 6795 c-2 -2 -23 -5 -48 -8 -101 -13 -271 -88 -394 -175 -84
-59 -230 -188 -299 -262 l-64 -70 -40 14 c-106 37 -258 38 -383 2 l-85 -25
-54 32 c-64 39 -197 167 -265 257 -27 36 -51 67 -53 69 -5 7 -12 -4 -16 -29
-6 -33 -81 -328 -113 -450 -85 -313 -188 -613 -259 -749 -13 -25 -47 -71 -76
-101 -28 -30 -91 -97 -138 -149 -47 -51 -97 -106 -111 -121 -14 -15 -68 -74
-120 -131 -52 -57 -122 -133 -155 -169 -33 -35 -64 -69 -70 -76 -5 -6 -51 -56
-102 -110 -50 -55 -100 -108 -110 -120 -10 -12 -56 -63 -103 -113 -47 -51 -88
-101 -92 -112 -13 -35 10 -73 64 -104 129 -74 157 -90 228 -125 151 -76 283
-103 398 -80 118 23 162 44 642 292 255 132 457 138 595 17 85 -75 117 -361
69 -604 -29 -142 -116 -355 -189 -463 -14 -20 -25 -40 -25 -45 0 -16 119 73
164 124 50 55 80 107 103 174 13 38 13 37 8 -42 -11 -168 -43 -282 -131 -458
-100 -201 -269 -373 -469 -478 -74 -39 -184 -87 -198 -87 -7 0 -17 -4 -23 -9
-11 -11 -232 -67 -293 -75 -24 -3 -46 -8 -48 -10 -2 -2 5 -21 17 -42 62 -119
201 -203 341 -207 113 -3 31 -17 -106 -17 -221 -2 -415 51 -619 169 -213 123
-426 328 -601 580 l-58 83 -16 -28 c-8 -16 -25 -56 -38 -89 l-23 -60 4 238 c3
130 8 242 12 248 4 7 1 10 -7 7 -30 -10 -86 -151 -113 -283 -21 -106 -22 -111
-30 -175 -4 -30 -9 -70 -11 -88 -4 -30 -14 -160 -20 -247 -2 -22 -3 -42 -4
-45 -1 -3 -15 22 -30 55 -29 61 -64 191 -76 279 -3 27 -8 52 -9 55 -12 20 -20
228 -21 503 0 278 -2 315 -15 308 -29 -15 -142 -135 -185 -195 -41 -56 -108
-183 -133 -250 -41 -110 -66 -264 -66 -416 0 -100 0 -100 -76 29 -24 39 -45
72 -47 72 -4 0 2 -68 13 -140 3 -19 7 -48 9 -65 31 -238 133 -582 245 -820 71
-152 212 -381 283 -461 6 -7 18 -21 26 -31 8 -10 24 -29 35 -42 22 -26 3 -17
-157 76 -32 18 -59 33 -61 33 -8 0 -526 309 -666 397 -81 50 238 -220 400
-340 36 -27 78 -58 94 -70 31 -24 151 -110 176 -127 8 -5 40 -27 70 -48 107
-74 443 -282 455 -282 2 0 28 -14 57 -31 82 -49 371 -192 488 -242 305 -130
668 -241 890 -272 25 -3 52 -8 60 -10 8 -2 47 -7 86 -10 39 -3 86 -8 105 -10
82 -12 431 -5 524 9 17 3 53 8 80 11 28 4 82 13 120 20 39 8 84 17 102 20 75
12 351 98 438 135 11 5 58 25 105 45 93 40 276 134 355 183 28 17 63 39 80 48
72 41 294 208 395 299 122 110 276 276 383 415 26 33 126 189 164 255 102 178
222 484 257 660 3 11 9 40 15 65 15 68 35 184 46 263 28 216 28 672 0 807 -3
14 -8 39 -11 55 -56 318 -246 752 -501 1142 -70 109 -72 114 -36 104 74 -21
313 -3 313 23 0 6 -51 47 -112 90 -107 75 -369 275 -433 331 -170 148 -254
240 -359 389 -73 104 -253 266 -399 359 -32 21 -31 37 5 162 24 85 60 149 107
192 41 37 35 40 -32 17 -77 -26 -77 -25 -50 106 12 63 24 120 26 125 2 6 11
37 21 70 21 71 41 112 69 142 16 18 17 24 6 27 -16 6 -97 14 -101 11z"/>
</g>
</svg>
